STARTFONT 2.1
FONT -Adobe-ITC Zapf Chancery-Medium-I-Normal--19-140-100-100-P-84-ISO8859-1
SIZE 14 100 100
FONTBOUNDINGBOX 21 19 -3 -5

STARTPROPERTIES 26
_DEC_DEVICE_FONTNAMES "PS=ZapfChancery-MediumItalic"
FONTNAME_REGISTRY ""
FAMILY_NAME "ITC Zapf Chancery"
FOUNDRY "Adobe"
WEIGHT_NAME "Medium"
SLANT "I"
SETWIDTH_NAME "Normal"
ADD_STYLE_NAME ""
PIXEL_SIZE 19
POINT_SIZE 140
RESOLUTION_X 100
RESOLUTION_Y 100
SPACING "P"
AVERAGE_WIDTH 84
CHARSET_REGISTRY "ISO8859"
CHARSET_ENCODING "1"
CHARSET_COLLECTIONS "ASCII ISO8859-1 ADOBE-STANDARD"
FULL_NAME "ITC Zapf Chancery Medium Italic"
COPYRIGHT "Copyright (c) 1991 Adobe Systems, Inc."
CAP_HEIGHT 13
X_HEIGHT 12
WEIGHT 10
QUAD_WIDTH 10
DEFAULT_CHAR 0
FONT_DESCENT 5
FONT_ASCENT 14
ENDPROPERTIES

CHARS 189

STARTCHAR space
ENCODING 32
SWIDTH 220 0
DWIDTH 4 0
BBX 1 1 0 0
BITMAP
00
ENDCHAR

STARTCHAR exclam
ENCODING 33
SWIDTH 280 0
DWIDTH 5 0
BBX 3 11 1 0
BITMAP
60
60
60
60
C0
C0
C0
C0
00
C0
C0
ENDCHAR

STARTCHAR quotedbl
ENCODING 34
SWIDTH 220 0
DWIDTH 4 0
BBX 4 4 0 8
BITMAP
50
50
A0
A0
ENDCHAR

STARTCHAR numbersign
ENCODING 35
SWIDTH 680 0
DWIDTH 7 0
BBX 10 8 -2 2
BITMAP
0900
0900
7FC0
1200
1200
FF80
2400
2400
ENDCHAR

STARTCHAR dollar
ENCODING 36
SWIDTH 440 0
DWIDTH 7 0
BBX 7 15 0 -2
BITMAP
08
08
1E
36
50
50
70
38
1C
14
14
D8
F0
20
20
ENDCHAR

STARTCHAR percent
ENCODING 37
SWIDTH 680 0
DWIDTH 13 0
BBX 10 12 1 -1
BITMAP
3100
5900
DA00
DA00
D400
6580
0AC0
0EC0
16C0
1680
2300
2000
ENDCHAR

STARTCHAR ampersand
ENCODING 38
SWIDTH 780 0
DWIDTH 14 0
BBX 15 11 0 0
BITMAP
0100
0302
0202
1CFC
6D30
4830
D020
E060
C0C0
C180
7E00
ENDCHAR

STARTCHAR quoteright
ENCODING 39
SWIDTH 240 0
DWIDTH 5 0
BBX 3 4 1 8
BITMAP
60
60
40
80
ENDCHAR

STARTCHAR parenleft
ENCODING 40
SWIDTH 260 0
DWIDTH 4 0
BBX 4 15 0 -3
BITMAP
10
10
20
20
40
40
C0
C0
C0
C0
C0
C0
C0
60
60
ENDCHAR

STARTCHAR parenright
ENCODING 41
SWIDTH 220 0
DWIDTH 5 0
BBX 4 15 0 -3
BITMAP
60
60
30
30
30
30
30
30
30
20
20
40
40
80
80
ENDCHAR

STARTCHAR asterisk
ENCODING 42
SWIDTH 420 0
DWIDTH 8 0
BBX 5 6 1 6
BITMAP
20
A8
70
70
A8
20
ENDCHAR

STARTCHAR plus
ENCODING 43
SWIDTH 520 0
DWIDTH 8 0
BBX 7 7 0 1
BITMAP
10
10
10
FE
10
10
10
ENDCHAR

STARTCHAR comma
ENCODING 44
SWIDTH 220 0
DWIDTH 4 0
BBX 3 4 -1 -2
BITMAP
60
60
40
80
ENDCHAR

STARTCHAR minus
ENCODING 45
SWIDTH 600 0
DWIDTH 8 0
BBX 7 1 0 4
BITMAP
FE
ENDCHAR

STARTCHAR period
ENCODING 46
SWIDTH 220 0
DWIDTH 4 0
BBX 2 2 0 0
BITMAP
C0
C0
ENDCHAR

STARTCHAR slash
ENCODING 47
SWIDTH 340 0
DWIDTH 6 0
BBX 5 15 0 -3
BITMAP
08
08
08
10
10
10
20
20
20
40
40
40
80
80
80
ENDCHAR

STARTCHAR zero
ENCODING 48
SWIDTH 440 0
DWIDTH 7 0
BBX 7 11 0 0
BITMAP
18
3C
4C
CC
CC
CC
CC
CC
C8
F0
60
ENDCHAR

STARTCHAR one
ENCODING 49
SWIDTH 440 0
DWIDTH 8 0
BBX 6 11 0 0
BITMAP
18
78
18
18
18
30
30
30
30
30
FC
ENDCHAR

STARTCHAR two
ENCODING 50
SWIDTH 440 0
DWIDTH 8 0
BBX 7 11 0 0
BITMAP
1C
66
66
06
0C
18
30
60
42
FE
9C
ENDCHAR

STARTCHAR three
ENCODING 51
SWIDTH 440 0
DWIDTH 8 0
BBX 7 11 0 0
BITMAP
0C
36
36
06
0C
18
06
06
C6
CC
78
ENDCHAR

STARTCHAR four
ENCODING 52
SWIDTH 440 0
DWIDTH 8 0
BBX 7 11 0 0
BITMAP
06
0E
0E
16
26
4C
8C
FE
0C
0C
0C
ENDCHAR

STARTCHAR five
ENCODING 53
SWIDTH 440 0
DWIDTH 8 0
BBX 8 12 0 0
BITMAP
01
3E
3C
20
40
7C
06
06
06
C6
CC
78
ENDCHAR

STARTCHAR six
ENCODING 54
SWIDTH 440 0
DWIDTH 8 0
BBX 7 11 0 0
BITMAP
0E
1C
20
60
40
DC
E6
C6
C6
CC
78
ENDCHAR

STARTCHAR seven
ENCODING 55
SWIDTH 440 0
DWIDTH 8 0
BBX 7 12 0 0
BITMAP
40
7E
FC
08
08
10
10
20
20
60
60
60
ENDCHAR

STARTCHAR eight
ENCODING 56
SWIDTH 440 0
DWIDTH 8 0
BBX 8 12 0 0
BITMAP
00
1C
26
66
64
38
3C
6E
C6
C4
CC
78
ENDCHAR

STARTCHAR nine
ENCODING 57
SWIDTH 440 0
DWIDTH 8 0
BBX 7 11 0 0
BITMAP
3C
66
C6
C6
CE
76
04
0C
08
70
E0
ENDCHAR

STARTCHAR colon
ENCODING 58
SWIDTH 260 0
DWIDTH 4 0
BBX 3 7 0 0
BITMAP
60
60
00
00
00
C0
C0
ENDCHAR

STARTCHAR semicolon
ENCODING 59
SWIDTH 240 0
DWIDTH 4 0
BBX 4 9 -1 -2
BITMAP
30
30
00
00
00
60
60
40
80
ENDCHAR

STARTCHAR less
ENCODING 60
SWIDTH 520 0
DWIDTH 8 0
BBX 7 7 0 1
BITMAP
02
0C
30
C0
30
0C
02
ENDCHAR

STARTCHAR equal
ENCODING 61
SWIDTH 520 0
DWIDTH 8 0
BBX 7 3 0 3
BITMAP
FE
00
FE
ENDCHAR

STARTCHAR greater
ENCODING 62
SWIDTH 520 0
DWIDTH 8 0
BBX 7 7 0 1
BITMAP
80
60
18
06
18
60
80
ENDCHAR

STARTCHAR question
ENCODING 63
SWIDTH 380 0
DWIDTH 8 0
BBX 6 11 1 0
BITMAP
78
CC
0C
0C
08
70
40
40
00
C0
C0
ENDCHAR

STARTCHAR at
ENCODING 64
SWIDTH 700 0
DWIDTH 13 0
BBX 12 11 0 0
BITMAP
0FC0
3060
67B0
C9B0
D9B0
D920
DBC0
CD80
C000
6080
3F00
ENDCHAR

STARTCHAR A
ENCODING 65
SWIDTH 620 0
DWIDTH 12 0
BBX 12 11 0 0
BITMAP
07C0
19C0
32C0
32C0
04C0
04C0
08C0
0FC0
10C0
E0E0
C0C0
ENDCHAR

STARTCHAR B
ENCODING 66
SWIDTH 600 0
DWIDTH 11 0
BBX 10 11 0 0
BITMAP
3F80
46C0
CCC0
CC80
0D00
0F80
18C0
18C0
18C0
3180
7E00
ENDCHAR

STARTCHAR C
ENCODING 67
SWIDTH 520 0
DWIDTH 10 0
BBX 10 11 0 0
BITMAP
0F80
30C0
20C0
4000
C000
C000
C000
C000
C100
6300
3C00
ENDCHAR

STARTCHAR D
ENCODING 68
SWIDTH 700 0
DWIDTH 13 0
BBX 12 11 0 0
BITMAP
3FC0
4C60
CC30
CC30
0830
1830
1830
1820
1040
60C0
FF00
ENDCHAR

STARTCHAR E
ENCODING 69
SWIDTH 620 0
DWIDTH 11 0
BBX 11 11 0 0
BITMAP
3FE0
4640
CC00
CC00
0C00
0F80
1800
1800
1860
3040
7F80
ENDCHAR

STARTCHAR F
ENCODING 70
SWIDTH 580 0
DWIDTH 11 0
BBX 11 13 0 -2
BITMAP
3FE0
4640
CC00
CC00
0C00
0F80
1800
1800
1800
1800
1000
E000
C000
ENDCHAR

STARTCHAR G
ENCODING 71
SWIDTH 620 0
DWIDTH 11 0
BBX 10 16 0 -5
BITMAP
0F80
30C0
20C0
4000
C000
C000
C7C0
C180
C180
6180
3F00
0300
0300
0200
1C00
1800
ENDCHAR

STARTCHAR H
ENCODING 72
SWIDTH 680 0
DWIDTH 13 0
BBX 14 13 0 0
BITMAP
000C
001C
3C20
4C60
CC60
CC60
08C0
1FC0
18C0
18C0
10C0
E0E0
C0C0
ENDCHAR

STARTCHAR I
ENCODING 73
SWIDTH 380 0
DWIDTH 6 0
BBX 6 11 0 0
BITMAP
3C
08
10
30
30
30
30
30
20
40
F0
ENDCHAR

STARTCHAR J
ENCODING 74
SWIDTH 400 0
DWIDTH 7 0
BBX 7 13 0 -2
BITMAP
3E
44
CC
CC
0C
0C
18
18
18
18
10
E0
C0
ENDCHAR

STARTCHAR K
ENCODING 75
SWIDTH 660 0
DWIDTH 12 0
BBX 13 14 0 -3
BITMAP
3C30
4C60
CC80
CD00
0E00
1E00
1B00
1B00
1180
E180
C0C0
00C0
0078
0030
ENDCHAR

STARTCHAR L
ENCODING 76
SWIDTH 580 0
DWIDTH 10 0
BBX 10 11 0 0
BITMAP
0700
0E00
1000
3000
3000
3000
3000
3000
30C0
6080
FF00
ENDCHAR

STARTCHAR M
ENCODING 77
SWIDTH 840 0
DWIDTH 16 0
BBX 18 14 0 0
BITMAP
0000C0
0001C0
000200
3C0600
460E00
C61600
C61600
0B2600
0B2C00
0B4C00
118C00
118C00
E10E00
C00C00
ENDCHAR

STARTCHAR N
ENCODING 78
SWIDTH 700 0
DWIDTH 13 0
BBX 17 17 -1 -4
BITMAP
000300
000700
1E0800
230800
631000
631000
059000
05A000
04A000
08E000
086000
706000
606000
002000
001C00
000C00
000000
ENDCHAR

STARTCHAR O
ENCODING 79
SWIDTH 600 0
DWIDTH 11 0
BBX 10 11 0 0
BITMAP
0F00
3180
20C0
40C0
C0C0
C0C0
C0C0
C080
C100
6300
3C00
ENDCHAR

STARTCHAR P
ENCODING 80
SWIDTH 540 0
DWIDTH 11 0
BBX 10 11 0 0
BITMAP
3F80
46C0
CCC0
CCC0
0C80
0D00
1E00
1800
1800
3000
7800
ENDCHAR

STARTCHAR Q
ENCODING 81
SWIDTH 600 0
DWIDTH 11 0
BBX 12 14 0 -3
BITMAP
0F00
3180
20C0
40C0
C0C0
C0C0
C0C0
C080
C100
6300
3C00
0C00
0330
01E0
ENDCHAR

STARTCHAR R
ENCODING 82
SWIDTH 600 0
DWIDTH 11 0
BBX 12 14 0 -3
BITMAP
3F80
4CC0
CCC0
CC80
0F00
0E00
1B00
1B00
1900
3180
7980
0080
0070
0030
ENDCHAR

STARTCHAR S
ENCODING 83
SWIDTH 460 0
DWIDTH 9 0
BBX 9 11 0 0
BITMAP
0780
1900
3000
3000
1800
0C00
0600
0600
0600
4C00
F000
ENDCHAR

STARTCHAR T
ENCODING 84
SWIDTH 500 0
DWIDTH 9 0
BBX 12 12 0 0
BITMAP
0030
3FE0
4200
C400
CC00
0C00
0C00
0C00
0C00
0800
1000
3C00
ENDCHAR

STARTCHAR U
ENCODING 85
SWIDTH 740 0
DWIDTH 14 0
BBX 13 11 0 0
BITMAP
3E38
4410
C830
D030
3030
3060
3060
3060
30E0
1960
0E70
ENDCHAR

STARTCHAR V
ENCODING 86
SWIDTH 640 0
DWIDTH 13 0
BBX 13 12 0 0
BITMAP
0030
3C18
4C18
CC10
CC20
0C60
1880
1980
1A00
1E00
1C00
1800
ENDCHAR

STARTCHAR W
ENCODING 87
SWIDTH 880 0
DWIDTH 16 0
BBX 16 12 0 0
BITMAP
0006
3C63
4C63
CCE3
CCE2
0D64
1964
1A68
1A68
1C70
1C70
1860
ENDCHAR

STARTCHAR X
ENCODING 88
SWIDTH 560 0
DWIDTH 11 0
BBX 12 13 -1 -2
BITMAP
3030
3870
0C80
0D00
0600
0600
0600
0B00
1300
E180
C180
00E0
0060
ENDCHAR

STARTCHAR Y
ENCODING 89
SWIDTH 560 0
DWIDTH 10 0
BBX 14 15 -1 -4
BITMAP
380C
4C1C
CC20
C640
0640
0380
0380
0100
0100
0200
0200
0400
0400
3800
3000
ENDCHAR

STARTCHAR Z
ENCODING 90
SWIDTH 620 0
DWIDTH 11 0
BBX 12 11 0 0
BITMAP
1FF0
2060
60C0
6180
0300
0600
0C00
1860
3060
6040
FF80
ENDCHAR

STARTCHAR bracketleft
ENCODING 91
SWIDTH 240 0
DWIDTH 5 0
BBX 4 15 0 -3
BITMAP
30
20
20
20
20
40
40
40
40
40
80
80
80
80
C0
ENDCHAR

STARTCHAR backslash
ENCODING 92
SWIDTH 480 0
DWIDTH 7 0
BBX 6 11 0 0
BITMAP
80
40
40
20
20
10
10
08
08
04
04
ENDCHAR

STARTCHAR bracketright
ENCODING 93
SWIDTH 320 0
DWIDTH 5 0
BBX 4 15 0 -3
BITMAP
30
10
10
10
10
20
20
20
20
20
40
40
40
40
C0
ENDCHAR

STARTCHAR asciicircum
ENCODING 94
SWIDTH 520 0
DWIDTH 8 0
BBX 5 6 1 5
BITMAP
20
20
50
50
88
88
ENDCHAR

STARTCHAR underscore
ENCODING 95
SWIDTH 500 0
DWIDTH 9 0
BBX 9 1 -1 -3
BITMAP
FF80
ENDCHAR

STARTCHAR quoteleft
ENCODING 96
SWIDTH 240 0
DWIDTH 4 0
BBX 3 4 0 8
BITMAP
20
40
C0
C0
ENDCHAR

STARTCHAR a
ENCODING 97
SWIDTH 420 0
DWIDTH 8 0
BBX 7 8 0 0
BITMAP
1E
26
46
C6
CC
CC
D6
64
ENDCHAR

STARTCHAR b
ENCODING 98
SWIDTH 420 0
DWIDTH 8 0
BBX 7 13 0 0
BITMAP
0C
1C
20
60
60
4C
D6
E6
C6
C6
C4
C8
F0
ENDCHAR

STARTCHAR c
ENCODING 99
SWIDTH 340 0
DWIDTH 7 0
BBX 6 8 0 0
BITMAP
1C
6C
40
C0
C0
C4
C8
70
ENDCHAR

STARTCHAR d
ENCODING 100
SWIDTH 440 0
DWIDTH 8 0
BBX 11 13 0 0
BITMAP
0060
00E0
0100
0300
0300
1E00
2600
4600
C600
CC00
CC00
D600
6400
ENDCHAR

STARTCHAR e
ENCODING 101
SWIDTH 340 0
DWIDTH 7 0
BBX 6 8 0 0
BITMAP
1C
6C
48
D0
E0
C4
C8
70
ENDCHAR

STARTCHAR f
ENCODING 102
SWIDTH 320 0
DWIDTH 6 0
BBX 10 18 -3 -5
BITMAP
00C0
01C0
0200
0600
0600
1F80
0600
0600
0C00
0C00
0C00
0C00
0C00
1800
1800
1000
E000
C000
ENDCHAR

STARTCHAR g
ENCODING 103
SWIDTH 400 0
DWIDTH 8 0
BBX 9 13 -2 -5
BITMAP
0780
0980
1180
3180
3300
3300
3700
1B00
6300
C300
8200
C600
7C00
ENDCHAR

STARTCHAR h
ENCODING 104
SWIDTH 440 0
DWIDTH 8 0
BBX 7 13 0 0
BITMAP
0C
1C
20
60
60
66
7E
66
E6
C4
CC
CE
CC
ENDCHAR

STARTCHAR i
ENCODING 105
SWIDTH 240 0
DWIDTH 4 0
BBX 4 11 0 0
BITMAP
30
30
00
60
E0
60
60
C0
C0
E0
C0
ENDCHAR

STARTCHAR j
ENCODING 106
SWIDTH 220 0
DWIDTH 4 0
BBX 7 16 -3 -5
BITMAP
06
06
00
0C
1C
0C
0C
18
18
18
18
18
18
10
E0
C0
ENDCHAR

STARTCHAR k
ENCODING 107
SWIDTH 440 0
DWIDTH 8 0
BBX 10 17 0 -4
BITMAP
0E00
1C00
2000
6000
6000
6600
6C00
7000
7000
D800
D800
CC00
CC00
0600
0600
03C0
0180
ENDCHAR

STARTCHAR l
ENCODING 108
SWIDTH 240 0
DWIDTH 4 0
BBX 6 13 0 0
BITMAP
0C
1C
20
60
60
60
60
60
C0
C0
C0
E0
C0
ENDCHAR

STARTCHAR m
ENCODING 109
SWIDTH 620 0
DWIDTH 12 0
BBX 11 8 0 0
BITMAP
6660
FFE0
6660
6660
4440
CCC0
CEE0
CCC0
ENDCHAR

STARTCHAR n
ENCODING 110
SWIDTH 460 0
DWIDTH 8 0
BBX 7 8 0 0
BITMAP
66
FE
66
66
44
CC
CE
CC
ENDCHAR

STARTCHAR o
ENCODING 111
SWIDTH 400 0
DWIDTH 8 0
BBX 7 8 0 0
BITMAP
1C
66
46
C6
C6
C4
CC
70
ENDCHAR

STARTCHAR p
ENCODING 112
SWIDTH 440 0
DWIDTH 8 0
BBX 10 13 -3 -5
BITMAP
0D80
1EC0
0CC0
08C0
18C0
1880
1900
1E00
3000
3000
3000
6000
F000
ENDCHAR

STARTCHAR q
ENCODING 113
SWIDTH 400 0
DWIDTH 8 0
BBX 7 13 0 -5
BITMAP
1E
26
46
C6
CC
CC
DC
6C
0C
18
18
18
3C
ENDCHAR

STARTCHAR r
ENCODING 114
SWIDTH 300 0
DWIDTH 6 0
BBX 6 8 0 0
BITMAP
64
EC
70
60
40
C0
C0
C0
ENDCHAR

STARTCHAR s
ENCODING 115
SWIDTH 320 0
DWIDTH 5 0
BBX 6 8 -1 0
BITMAP
1C
28
60
70
38
18
D0
E0
ENDCHAR

STARTCHAR t
ENCODING 116
SWIDTH 320 0
DWIDTH 5 0
BBX 5 10 0 0
BITMAP
30
30
F8
60
60
60
C0
C0
D0
E0
ENDCHAR

STARTCHAR u
ENCODING 117
SWIDTH 460 0
DWIDTH 8 0
BBX 7 8 0 0
BITMAP
66
E6
66
44
CC
CC
FE
CC
ENDCHAR

STARTCHAR v
ENCODING 118
SWIDTH 440 0
DWIDTH 8 0
BBX 8 8 0 0
BITMAP
16
F3
B3
A3
66
4C
78
70
ENDCHAR

STARTCHAR w
ENCODING 119
SWIDTH 680 0
DWIDTH 13 0
BBX 13 8 0 0
BITMAP
11B0
F198
B318
A318
6730
4E60
7BC0
7380
ENDCHAR

STARTCHAR x
ENCODING 120
SWIDTH 420 0
DWIDTH 8 0
BBX 10 12 0 -4
BITMAP
C600
6600
2C00
1800
3000
7800
C800
CC00
0400
0640
03C0
0180
ENDCHAR

STARTCHAR y
ENCODING 121
SWIDTH 400 0
DWIDTH 8 0
BBX 7 13 0 -5
BITMAP
66
E6
66
44
CC
CC
FC
CC
18
18
10
E0
C0
ENDCHAR

STARTCHAR z
ENCODING 122
SWIDTH 440 0
DWIDTH 9 0
BBX 8 8 0 0
BITMAP
33
6E
0C
18
30
63
FB
CE
ENDCHAR

STARTCHAR braceleft
ENCODING 123
SWIDTH 240 0
DWIDTH 5 0
BBX 4 15 0 -3
BITMAP
10
20
60
60
60
60
40
80
40
C0
C0
C0
C0
40
20
ENDCHAR

STARTCHAR bar
ENCODING 124
SWIDTH 520 0
DWIDTH 10 0
BBX 1 11 4 0
BITMAP
80
80
80
80
80
80
80
80
80
80
80
ENDCHAR

STARTCHAR braceright
ENCODING 125
SWIDTH 240 0
DWIDTH 5 0
BBX 4 15 0 -3
BITMAP
40
20
30
30
30
30
20
10
20
60
60
60
60
40
80
ENDCHAR

STARTCHAR asciitilde
ENCODING 126
SWIDTH 520 0
DWIDTH 8 0
BBX 7 3 0 4
BITMAP
32
7C
98
ENDCHAR

STARTCHAR exclamdown
ENCODING 161
SWIDTH 280 0
DWIDTH 4 0
BBX 3 11 0 -3
BITMAP
60
60
00
60
60
60
60
C0
C0
C0
C0
ENDCHAR

STARTCHAR cent
ENCODING 162
SWIDTH 440 0
DWIDTH 7 0
BBX 7 12 0 0
BITMAP
04
04
1E
2A
48
C8
D0
D0
54
38
20
20
ENDCHAR

STARTCHAR sterling
ENCODING 163
SWIDTH 480 0
DWIDTH 7 0
BBX 9 12 -2 -1
BITMAP
0380
0700
0800
1800
1800
3F00
1800
1800
1180
2100
7E00
8000
ENDCHAR

STARTCHAR currency
ENCODING 164
SWIDTH 600 0
DWIDTH 7 0
BBX 8 8 -1 1
BITMAP
41
3E
66
66
66
66
7C
82
ENDCHAR

STARTCHAR yen
ENCODING 165
SWIDTH 480 0
DWIDTH 7 0
BBX 10 11 -1 0
BITMAP
C0C0
E1C0
3200
1400
0C00
3F00
0800
7E00
1000
1000
3800
ENDCHAR

STARTCHAR brokenbar
ENCODING 166
SWIDTH 520 0
DWIDTH 10 0
BBX 1 11 4 0
BITMAP
80
80
80
80
00
00
80
80
80
80
80
ENDCHAR

STARTCHAR section
ENCODING 167
SWIDTH 420 0
DWIDTH 8 0
BBX 7 14 0 -3
BITMAP
0E
12
20
30
38
5C
4C
64
74
38
18
08
90
E0
ENDCHAR

STARTCHAR dieresis
ENCODING 168
SWIDTH 360 0
DWIDTH 7 0
BBX 5 2 1 9
BITMAP
D8
D8
ENDCHAR

STARTCHAR copyright
ENCODING 169
SWIDTH 740 0
DWIDTH 15 0
BBX 13 13 1 0
BITMAP
0F80
3060
4010
4790
8888
9008
9008
9008
8888
4710
4010
3060
0F80
ENDCHAR

STARTCHAR ordfeminine
ENCODING 170
SWIDTH 260 0
DWIDTH 5 0
BBX 4 6 1 5
BITMAP
70
90
B0
D0
00
F0
ENDCHAR

STARTCHAR guillemotleft
ENCODING 171
SWIDTH 340 0
DWIDTH 7 0
BBX 6 6 0 1
BITMAP
14
28
50
A0
50
28
ENDCHAR

STARTCHAR logicalnot
ENCODING 172
SWIDTH 600 0
DWIDTH 8 0
BBX 7 4 0 2
BITMAP
FE
02
02
02
ENDCHAR

STARTCHAR hyphen
ENCODING 173
SWIDTH 280 0
DWIDTH 5 0
BBX 4 1 0 4
BITMAP
F0
ENDCHAR

STARTCHAR registered
ENCODING 174
SWIDTH 740 0
DWIDTH 15 0
BBX 13 13 1 0
BITMAP
0F80
3060
4010
5F10
8888
8888
8F08
8908
8888
5CD0
4010
3060
0F80
ENDCHAR

STARTCHAR macron
ENCODING 175
SWIDTH 440 0
DWIDTH 8 0
BBX 6 1 1 10
BITMAP
FC
ENDCHAR

STARTCHAR degree
ENCODING 176
SWIDTH 400 0
DWIDTH 7 0
BBX 6 6 1 5
BITMAP
78
CC
84
84
CC
78
ENDCHAR

STARTCHAR plusminus
ENCODING 177
SWIDTH 520 0
DWIDTH 8 0
BBX 7 7 0 1
BITMAP
10
10
FE
10
10
00
FE
ENDCHAR

STARTCHAR twosuperior
ENCODING 178
SWIDTH 264 0
DWIDTH 4 0
BBX 4 6 0 5
BITMAP
60
B0
30
60
C0
B0
ENDCHAR

STARTCHAR threesuperior
ENCODING 179
SWIDTH 264 0
DWIDTH 4 0
BBX 4 6 0 5
BITMAP
E0
30
60
30
B0
E0
ENDCHAR

STARTCHAR acute
ENCODING 180
SWIDTH 300 0
DWIDTH 6 0
BBX 4 3 1 9
BITMAP
30
60
C0
ENDCHAR

STARTCHAR mu
ENCODING 181
SWIDTH 460 0
DWIDTH 8 0
BBX 8 13 -1 -5
BITMAP
33
73
33
22
66
66
7F
66
60
C0
C0
C0
80
ENDCHAR

STARTCHAR paragraph
ENCODING 182
SWIDTH 500 0
DWIDTH 9 0
BBX 9 15 0 -4
BITMAP
1F80
3E00
7E00
7E00
7C00
3C00
1C00
0800
0800
0800
1000
1000
1000
E000
C000
ENDCHAR

STARTCHAR periodcentered
ENCODING 183
SWIDTH 220 0
DWIDTH 4 0
BBX 2 2 0 3
BITMAP
C0
C0
ENDCHAR

STARTCHAR cedilla
ENCODING 184
SWIDTH 300 0
DWIDTH 5 0
BBX 3 5 0 -4
BITMAP
20
40
E0
40
80
ENDCHAR

STARTCHAR onesuperior
ENCODING 185
SWIDTH 264 0
DWIDTH 4 0
BBX 4 6 0 5
BITMAP
70
30
20
60
60
F0
ENDCHAR

STARTCHAR ordmasculine
ENCODING 186
SWIDTH 260 0
DWIDTH 5 0
BBX 4 6 1 5
BITMAP
70
90
90
E0
00
F0
ENDCHAR

STARTCHAR guillemotright
ENCODING 187
SWIDTH 380 0
DWIDTH 7 0
BBX 6 6 0 1
BITMAP
50
28
14
28
50
A0
ENDCHAR

STARTCHAR onequarter
ENCODING 188
SWIDTH 660 0
DWIDTH 11 0
BBX 10 11 0 0
BITMAP
7180
3100
2300
6200
6400
FCC0
09C0
1280
37C0
2180
6180
ENDCHAR

STARTCHAR onehalf
ENCODING 189
SWIDTH 660 0
DWIDTH 11 0
BBX 10 11 0 0
BITMAP
7180
3100
2300
6200
6400
FD80
0AC0
10C0
3180
2300
62C0
ENDCHAR

STARTCHAR threequarters
ENCODING 190
SWIDTH 660 0
DWIDTH 11 0
BBX 10 11 0 0
BITMAP
E180
3100
6300
3200
B400
ECC0
09C0
1280
37C0
2180
6180
ENDCHAR

STARTCHAR questiondown
ENCODING 191
SWIDTH 400 0
DWIDTH 8 0
BBX 6 11 0 -3
BITMAP
0C
0C
00
08
08
38
40
C0
C0
CC
78
ENDCHAR

STARTCHAR Agrave
ENCODING 192
SWIDTH 620 0
DWIDTH 12 0
BBX 11 12 0 0
BITMAP
0300
0180
00C0
0000
07C0
1EC0
32C0
34C0
0FC0
10C0
E0E0
C0C0
ENDCHAR

STARTCHAR Aacute
ENCODING 193
SWIDTH 620 0
DWIDTH 12 0
BBX 11 12 0 0
BITMAP
00C0
0180
0300
0000
07C0
1EC0
32C0
34C0
0FC0
10C0
E0E0
C0C0
ENDCHAR

STARTCHAR Acircumflex
ENCODING 194
SWIDTH 620 0
DWIDTH 12 0
BBX 11 12 0 0
BITMAP
0100
0380
06C0
0000
07C0
1EC0
32C0
34C0
0FC0
10C0
E0E0
C0C0
ENDCHAR

STARTCHAR Atilde
ENCODING 195
SWIDTH 620 0
DWIDTH 12 0
BBX 11 11 0 0
BITMAP
06C0
0B80
0000
07C0
1EC0
32C0
34C0
0FC0
10C0
E0E0
C0C0
ENDCHAR

STARTCHAR Adieresis
ENCODING 196
SWIDTH 620 0
DWIDTH 12 0
BBX 11 11 0 0
BITMAP
06C0
06C0
0000
07C0
1EC0
32C0
34C0
0FC0
10C0
E0E0
C0C0
ENDCHAR

STARTCHAR Aring
ENCODING 197
SWIDTH 620 0
DWIDTH 12 0
BBX 11 12 0 0
BITMAP
00C0
0360
0360
0140
07C0
1EC0
32C0
34C0
0FC0
10C0
E0E0
C0C0
ENDCHAR

STARTCHAR AE
ENCODING 198
SWIDTH 740 0
DWIDTH 16 0
BBX 17 11 -1 0
BITMAP
007F80
007900
00F000
01B000
033000
07FE00
0C6000
186000
306180
60C100
E1FE00
ENDCHAR

STARTCHAR Ccedilla
ENCODING 199
SWIDTH 520 0
DWIDTH 10 0
BBX 10 15 0 -4
BITMAP
0F80
30C0
20C0
4000
C000
C000
C000
C000
C100
6300
3C00
0800
1C00
0800
1000
ENDCHAR

STARTCHAR Egrave
ENCODING 200
SWIDTH 620 0
DWIDTH 11 0
BBX 11 12 0 0
BITMAP
0600
0300
0180
0000
3FE0
4C40
CC00
1F80
1800
1860
3040
7F80
ENDCHAR

STARTCHAR Eacute
ENCODING 201
SWIDTH 620 0
DWIDTH 11 0
BBX 11 12 0 0
BITMAP
00C0
0180
0300
0000
3FE0
4C40
CC00
1F80
1800
1860
3040
7F80
ENDCHAR

STARTCHAR Ecircumflex
ENCODING 202
SWIDTH 620 0
DWIDTH 11 0
BBX 11 12 0 0
BITMAP
0200
0700
0D80
0000
3FE0
4C40
CC00
1F80
1800
1860
3040
7F80
ENDCHAR

STARTCHAR Edieresis
ENCODING 203
SWIDTH 620 0
DWIDTH 11 0
BBX 11 11 0 0
BITMAP
06C0
06C0
0000
3FE0
4C40
CC00
1F80
1800
1860
3040
7F80
ENDCHAR

STARTCHAR Igrave
ENCODING 204
SWIDTH 380 0
DWIDTH 6 0
BBX 6 12 0 0
BITMAP
60
30
18
00
3C
08
18
30
30
60
40
F0
ENDCHAR

STARTCHAR Iacute
ENCODING 205
SWIDTH 380 0
DWIDTH 6 0
BBX 7 12 0 0
BITMAP
06
0C
18
00
3C
08
18
30
30
60
40
F0
ENDCHAR

STARTCHAR Icircumflex
ENCODING 206
SWIDTH 380 0
DWIDTH 6 0
BBX 7 12 0 0
BITMAP
08
1C
36
00
3C
08
18
30
30
60
40
F0
ENDCHAR

STARTCHAR Idieresis
ENCODING 207
SWIDTH 380 0
DWIDTH 6 0
BBX 6 11 0 0
BITMAP
6C
6C
00
3C
08
18
30
30
60
40
F0
ENDCHAR

STARTCHAR Eth
ENCODING 208
SWIDTH 700 0
DWIDTH 13 0
BBX 12 11 0 0
BITMAP
3FC0
4C60
CC30
CC30
0830
3E30
1830
1820
1040
60C0
FF00
ENDCHAR

STARTCHAR Ntilde
ENCODING 209
SWIDTH 700 0
DWIDTH 13 0
BBX 15 14 0 -3
BITMAP
01B0
02E0
0006
3C0E
4610
C620
CB20
1140
1140
E0C0
C0C0
0040
0038
0018
ENDCHAR

STARTCHAR Ograve
ENCODING 210
SWIDTH 600 0
DWIDTH 11 0
BBX 10 12 0 0
BITMAP
1800
0C00
0600
0000
0F00
3180
60C0
C0C0
C0C0
C180
6300
3C00
ENDCHAR

STARTCHAR Oacute
ENCODING 211
SWIDTH 600 0
DWIDTH 11 0
BBX 10 12 0 0
BITMAP
0180
0300
0600
0000
0F00
3180
60C0
C0C0
C0C0
C180
6300
3C00
ENDCHAR

STARTCHAR Ocircumflex
ENCODING 212
SWIDTH 600 0
DWIDTH 11 0
BBX 10 12 0 0
BITMAP
0400
0E00
1B00
0000
0F00
3180
60C0
C0C0
C0C0
C180
6300
3C00
ENDCHAR

STARTCHAR Otilde
ENCODING 213
SWIDTH 600 0
DWIDTH 11 0
BBX 10 11 0 0
BITMAP
0D80
1700
0000
0F00
3180
60C0
C0C0
C0C0
C180
6300
3C00
ENDCHAR

STARTCHAR Odieresis
ENCODING 214
SWIDTH 600 0
DWIDTH 11 0
BBX 10 11 0 0
BITMAP
1B00
1B00
0000
0F00
3180
60C0
C0C0
C0C0
C180
6300
3C00
ENDCHAR

STARTCHAR multiply
ENCODING 215
SWIDTH 520 0
DWIDTH 8 0
BBX 6 7 1 1
BITMAP
84
CC
78
30
78
CC
84
ENDCHAR

STARTCHAR Oslash
ENCODING 216
SWIDTH 660 0
DWIDTH 11 0
BBX 10 11 0 0
BITMAP
0F40
3180
21C0
42C0
C6C0
CCC0
D8C0
D080
E100
6300
BC00
ENDCHAR

STARTCHAR Ugrave
ENCODING 217
SWIDTH 740 0
DWIDTH 14 0
BBX 13 12 0 0
BITMAP
0300
0180
00C0
0000
3E38
4410
C820
D060
3060
30E0
1960
0E70
ENDCHAR

STARTCHAR Uacute
ENCODING 218
SWIDTH 740 0
DWIDTH 14 0
BBX 13 12 0 0
BITMAP
0060
00C0
0180
0000
3E38
4410
C820
D060
3060
30E0
1960
0E70
ENDCHAR

STARTCHAR Ucircumflex
ENCODING 219
SWIDTH 740 0
DWIDTH 14 0
BBX 13 12 0 0
BITMAP
0040
00E0
01B0
0000
3E38
4410
C820
D060
3060
30E0
1960
0E70
ENDCHAR

STARTCHAR Udieresis
ENCODING 220
SWIDTH 740 0
DWIDTH 14 0
BBX 13 11 0 0
BITMAP
0360
0360
0000
3E38
4410
C820
D060
3060
30E0
1960
0E70
ENDCHAR

STARTCHAR Yacute
ENCODING 221
SWIDTH 560 0
DWIDTH 10 0
BBX 14 16 -1 -4
BITMAP
0030
0060
00C0
0000
3C0C
461C
C320
C340
0140
0180
0100
0200
0400
0400
3800
3000
ENDCHAR

STARTCHAR Thorn
ENCODING 222
SWIDTH 540 0
DWIDTH 11 0
BBX 10 11 0 0
BITMAP
3F80
4600
CF80
CEC0
0CC0
0CC0
1C80
1900
1E00
3000
7800
ENDCHAR

STARTCHAR germandbls
ENCODING 223
SWIDTH 420 0
DWIDTH 9 0
BBX 11 18 -3 -5
BITMAP
00C0
01E0
0220
0640
0680
1F80
06C0
06C0
0C60
0C60
0C40
0D80
0D00
1800
1800
1000
E000
C000
ENDCHAR

STARTCHAR agrave
ENCODING 224
SWIDTH 420 0
DWIDTH 8 0
BBX 7 12 0 0
BITMAP
30
18
0C
00
1E
26
46
C6
CC
CC
D6
64
ENDCHAR

STARTCHAR aacute
ENCODING 225
SWIDTH 420 0
DWIDTH 8 0
BBX 8 12 0 0
BITMAP
03
06
0C
00
1E
26
46
C6
CC
CC
D6
64
ENDCHAR

STARTCHAR acircumflex
ENCODING 226
SWIDTH 420 0
DWIDTH 8 0
BBX 7 12 0 0
BITMAP
08
1C
36
00
1E
26
46
C6
CC
CC
D6
64
ENDCHAR

STARTCHAR atilde
ENCODING 227
SWIDTH 420 0
DWIDTH 8 0
BBX 8 11 0 0
BITMAP
1B
2E
00
1E
26
46
C6
CC
CC
D6
64
ENDCHAR

STARTCHAR adieresis
ENCODING 228
SWIDTH 420 0
DWIDTH 8 0
BBX 7 11 0 0
BITMAP
36
36
00
1E
26
46
C6
CC
CC
D6
64
ENDCHAR

STARTCHAR aring
ENCODING 229
SWIDTH 420 0
DWIDTH 8 0
BBX 8 12 0 0
BITMAP
06
1B
1B
0C
1E
26
46
C6
CC
CC
D6
64
ENDCHAR

STARTCHAR ae
ENCODING 230
SWIDTH 540 0
DWIDTH 12 0
BBX 11 9 0 0
BITMAP
0200
1EE0
2760
4640
C680
CF00
CC40
DC80
6700
ENDCHAR

STARTCHAR ccedilla
ENCODING 231
SWIDTH 340 0
DWIDTH 7 0
BBX 6 12 0 -4
BITMAP
1C
6C
40
C0
C0
C4
C8
70
20
70
20
40
ENDCHAR

STARTCHAR egrave
ENCODING 232
SWIDTH 340 0
DWIDTH 7 0
BBX 6 12 0 0
BITMAP
60
30
18
00
1C
6C
48
D0
E0
C4
C8
70
ENDCHAR

STARTCHAR eacute
ENCODING 233
SWIDTH 340 0
DWIDTH 7 0
BBX 7 12 0 0
BITMAP
06
0C
18
00
1C
6C
48
D0
E0
C4
C8
70
ENDCHAR

STARTCHAR ecircumflex
ENCODING 234
SWIDTH 340 0
DWIDTH 7 0
BBX 6 12 0 0
BITMAP
10
38
6C
00
1C
6C
48
D0
E0
C4
C8
70
ENDCHAR

STARTCHAR edieresis
ENCODING 235
SWIDTH 340 0
DWIDTH 7 0
BBX 6 11 0 0
BITMAP
6C
6C
00
1C
6C
48
D0
E0
C4
C8
70
ENDCHAR

STARTCHAR igrave
ENCODING 236
SWIDTH 240 0
DWIDTH 4 0
BBX 4 12 0 0
BITMAP
C0
60
30
00
60
E0
60
60
C0
C0
E0
C0
ENDCHAR

STARTCHAR iacute
ENCODING 237
SWIDTH 240 0
DWIDTH 4 0
BBX 4 12 0 0
BITMAP
30
60
C0
00
60
E0
60
60
C0
C0
E0
C0
ENDCHAR

STARTCHAR icircumflex
ENCODING 238
SWIDTH 240 0
DWIDTH 4 0
BBX 5 12 0 0
BITMAP
20
70
D8
00
60
E0
60
60
C0
C0
E0
C0
ENDCHAR

STARTCHAR idieresis
ENCODING 239
SWIDTH 240 0
DWIDTH 4 0
BBX 5 11 -1 0
BITMAP
D8
D8
00
30
70
30
30
60
60
70
60
ENDCHAR

STARTCHAR eth
ENCODING 240
SWIDTH 400 0
DWIDTH 8 0
BBX 8 13 0 0
BITMAP
38
4F
1C
64
06
1E
66
46
C6
C6
C4
CC
70
ENDCHAR

STARTCHAR ntilde
ENCODING 241
SWIDTH 460 0
DWIDTH 8 0
BBX 8 11 0 0
BITMAP
1B
2E
00
66
FE
66
66
44
CC
CE
CC
ENDCHAR

STARTCHAR ograve
ENCODING 242
SWIDTH 400 0
DWIDTH 8 0
BBX 7 12 0 0
BITMAP
60
30
18
00
1C
66
46
C6
C6
C4
CC
70
ENDCHAR

STARTCHAR oacute
ENCODING 243
SWIDTH 400 0
DWIDTH 8 0
BBX 7 12 0 0
BITMAP
06
0C
18
00
1C
66
46
C6
C6
C4
CC
70
ENDCHAR

STARTCHAR ocircumflex
ENCODING 244
SWIDTH 400 0
DWIDTH 8 0
BBX 7 12 0 0
BITMAP
08
1C
36
00
1C
66
46
C6
C6
C4
CC
70
ENDCHAR

STARTCHAR otilde
ENCODING 245
SWIDTH 400 0
DWIDTH 8 0
BBX 8 11 0 0
BITMAP
1B
2E
00
1C
66
46
C6
C6
C4
CC
70
ENDCHAR

STARTCHAR odieresis
ENCODING 246
SWIDTH 400 0
DWIDTH 8 0
BBX 7 11 0 0
BITMAP
36
36
00
1C
66
46
C6
C6
C4
CC
70
ENDCHAR

STARTCHAR divide
ENCODING 247
SWIDTH 520 0
DWIDTH 8 0
BBX 7 7 0 1
BITMAP
10
10
00
FE
00
10
10
ENDCHAR

STARTCHAR oslash
ENCODING 248
SWIDTH 440 0
DWIDTH 8 0
BBX 9 8 -1 0
BITMAP
0E80
3300
2700
6B00
7300
6200
E600
3800
ENDCHAR

STARTCHAR ugrave
ENCODING 249
SWIDTH 460 0
DWIDTH 8 0
BBX 7 12 0 0
BITMAP
60
30
18
00
66
E6
66
44
CC
CC
FE
CC
ENDCHAR

STARTCHAR uacute
ENCODING 250
SWIDTH 460 0
DWIDTH 8 0
BBX 7 12 0 0
BITMAP
06
0C
18
00
66
E6
66
44
CC
CC
FE
CC
ENDCHAR

STARTCHAR udieresis
ENCODING 252
SWIDTH 460 0
DWIDTH 8 0
BBX 7 11 0 0
BITMAP
36
36
00
66
E6
66
44
CC
CC
FE
CC
ENDCHAR

STARTCHAR yacute
ENCODING 253
SWIDTH 400 0
DWIDTH 8 0
BBX 7 17 0 -5
BITMAP
06
0C
18
00
66
E6
66
44
CC
CC
FC
CC
18
18
10
E0
C0
ENDCHAR

STARTCHAR thorn
ENCODING 254
SWIDTH 440 0
DWIDTH 8 0
BBX 10 18 -3 -5
BITMAP
0180
0380
0400
0C00
0C00
0980
1AC0
1CC0
18C0
18C0
1880
1900
1E00
3000
3000
3000
6000
F000
ENDCHAR

STARTCHAR ydieresis
ENCODING 255
SWIDTH 400 0
DWIDTH 8 0
BBX 7 16 0 -5
BITMAP
36
36
00
66
E6
66
44
CC
CC
FC
CC
18
18
10
E0
C0
ENDCHAR
ENDFONT
